<?xml version="1.0" encoding="UTF-8"?>
<!DOCTYPE svg PUBLIC "-//W3C//DTD SVG 1.1//EN" "http://www.w3.org/Graphics/SVG/1.1/DTD/svg11.dtd">
<!-- Creator: CorelDRAW 2020 (64-Bit) -->
<svg xmlns="http://www.w3.org/2000/svg" xml:space="preserve" width="5.08mm" height="3.3866mm" version="1.1" style="shape-rendering:geometricPrecision; text-rendering:geometricPrecision; image-rendering:optimizeQuality; fill-rule:evenodd; clip-rule:evenodd"
viewBox="0 0 508 338.66"
 xmlns:xlink="http://www.w3.org/1999/xlink"
 xmlns:xodm="http://www.corel.com/coreldraw/odm/2003">
 <defs>
  <style type="text/css">
   <![CDATA[
    .fil0 {fill:black}
    .fil1 {fill:#C0D5A8}
   ]]>
  </style>
 </defs>
 <g id="Слой_x0020_1">
  <metadata id="CorelCorpID_0Corel-Layer"/>
  <path class="fil0" d="M75.05 122.27c0,34.78 0,69.56 0,104.34 6.77,0 13.54,0 20.3,0 0,-14.16 0,-28.33 0,-42.49 9.88,0 19.77,0 29.65,0 9.77,14.14 19.54,28.27 29.32,42.4 7.36,0 14.72,0 22.08,0 -9.9,-14.45 -19.79,-28.9 -29.69,-43.35 20.44,-2.49 29.31,-13.48 29.1,-31.12 -1.04,-17.58 -10.25,-27.74 -31.28,-29.26 -23.19,-0.25 -46.26,-0.52 -69.48,-0.52zm20.31 17.05c0,9.2 0,18.4 0,27.6 12.4,0 24.8,0 37.21,0 14,0.65 22.99,-2.65 22.98,-13.07 0.33,-9.54 -5.61,-14.73 -19.36,-14.48 -13.61,-0.02 -27.22,-0.03 -40.83,-0.05z"/>
  <polygon class="fil0" points="257.24,163.3 229.01,122.51 205.14,122.54 246.96,182.95 246.96,226.54 267.31,226.54 267.31,183.45 "/>
  <polygon class="fil1" points="267.31,183.44 257.24,163.3 286.84,123.18 310.24,123.18 "/>
  <path class="fil0" d="M448.73 140.26c-2.85,4.89 -5.69,9.78 -8.53,14.68 -8.29,-7.97 -17.9,-13.19 -28.03,-15.26 -7.58,-1.54 -15.47,-1.82 -23.5,-0.61 -8.26,1.25 -17.5,4.54 -24.65,13.83 -9.06,14.4 -10.11,29.1 1.21,44.3 4.89,5.81 10.72,9.1 16.84,11.01 20.99,6.55 41.4,0.79 58.18,-14 2.82,4.84 5.65,9.69 8.47,14.53 -16.45,13.45 -34.63,21.23 -55.64,19.66 -9.07,-0.64 -14.16,-1.4 -19.88,-3.33 -27.16,-9.12 -37.62,-28.52 -37.04,-53.19 1.21,-19 10.49,-36.36 31.03,-45.49 7.09,-3.15 14.9,-4.82 24.98,-5.69 23.57,-1.77 40.84,7.52 56.56,19.56z"/>
 </g>
</svg>
