<?xml version="1.0" encoding="UTF-8"?>
<!DOCTYPE svg PUBLIC "-//W3C//DTD SVG 1.1//EN" "http://www.w3.org/Graphics/SVG/1.1/DTD/svg11.dtd">
<!-- Creator: CorelDRAW 2020 (64-Bit) -->
<svg xmlns="http://www.w3.org/2000/svg" xml:space="preserve" width="297mm" height="420mm" version="1.1" style="shape-rendering:geometricPrecision; text-rendering:geometricPrecision; image-rendering:optimizeQuality; fill-rule:evenodd; clip-rule:evenodd"
viewBox="0 0 29700 42000"
 xmlns:xlink="http://www.w3.org/1999/xlink"
 xmlns:xodm="http://www.corel.com/coreldraw/odm/2003">
 <defs>
  <style type="text/css">
   <![CDATA[
    .fil0 {fill:black}
    .fil1 {fill:#C0D5A8}
   ]]>
  </style>
 </defs>
 <g id="Слой_x0020_1">
  <metadata id="CorelCorpID_0Corel-Layer"/>
  <path class="fil0" d="M12652.26 18262.04c0,709.06 0,1418.11 0,2127.16 137.93,0 275.86,0 413.79,0 0,-288.74 0,-577.5 0,-866.24 201.5,0 403.01,0 604.51,0 199.21,288.17 398.43,576.33 597.64,864.5 150.07,0 300.14,0 450.21,0 -201.76,-294.62 -403.53,-589.23 -605.3,-883.84 416.77,-50.82 597.57,-274.78 593.34,-634.53 -21.22,-358.38 -208.95,-565.59 -637.86,-596.6 -472.7,-5.09 -943.11,-10.45 -1416.33,-10.45zm413.95 347.51c0,187.6 0,375.2 0,562.8 252.86,0 505.74,0 758.6,0 285.46,13.22 468.79,-54.18 468.55,-266.52 6.7,-194.53 -114.33,-300.26 -394.68,-295.24 -277.49,-0.34 -554.98,-0.7 -832.47,-1.04z"/>
  <polygon class="fil0" points="16366.5,19098.4 15790.98,18266.79 15304.45,18267.45 16157.08,19499.15 16157.08,20387.72 16571.93,20387.72 16571.93,19509.18 "/>
  <polygon class="fil1" points="16571.93,19509.18 16366.5,19098.4 16970.07,18280.52 17447.05,18280.52 "/>
  <path class="fil0" d="M20270.48 18628.65c-57.93,99.78 -115.85,199.57 -173.78,299.36 -168.95,-162.5 -364.88,-268.85 -571.47,-311.01 -154.61,-31.56 -315.48,-37.15 -479.14,-12.43 -168.38,25.43 -356.8,92.55 -502.48,281.92 -184.8,293.44 -206.18,593.32 24.56,903.15 99.72,118.33 218.56,185.57 343.3,224.48 427.93,133.48 844.08,16.11 1186.16,-285.48 57.58,98.75 115.15,197.51 172.73,296.27 -335.41,274.29 -705.99,432.7 -1134.34,400.81 -184.93,-13.01 -288.68,-28.62 -405.41,-67.82 -553.67,-185.92 -766.8,-581.59 -755.06,-1084.44 24.62,-387.4 213.85,-741.45 632.64,-927.48 144.44,-64.16 303.69,-98.37 509.33,-116.09 480.49,-36.01 832.64,153.41 1152.96,398.76z"/>
 </g>
</svg>
